<?xml version="1.0" encoding="UTF-8" standalone="no"?>
<!DOCTYPE svg PUBLIC "-//W3C//DTD SVG 1.1//EN"
 "http://www.w3.org/Graphics/SVG/1.1/DTD/svg11.dtd">
<!-- Generated by graphviz version 2.38.0 (20140413.2041)
 -->
<!-- Title: models_diagram Pages: 1 -->
<svg width="988pt" height="408pt"
 viewBox="0.00 0.00 988.34 408.00" xmlns="http://www.w3.org/2000/svg" xmlns:xlink="http://www.w3.org/1999/xlink">
<g id="graph0" class="graph" transform="scale(1 1) rotate(0) translate(4 404)">
<title>models_diagram</title>
<polygon fill="none" stroke="none" points="-4,4 -4,-404 984.343,-404 984.343,4 -4,4"/>
<!-- _diagram_info -->
<g id="node1" class="node"><title>_diagram_info</title>
<text text-anchor="start" x="8" y="-311.1" font-family="Times,serif" font-size="13.00">Models diagram</text>
<text text-anchor="start" x="8" y="-297.1" font-family="Times,serif" font-size="13.00">Date: Oct 11 2017 &#45; 19:12</text>
<text text-anchor="start" x="8" y="-283.1" font-family="Times,serif" font-size="13.00">Migration version: 20171011221023</text>
<text text-anchor="start" x="8" y="-269.1" font-family="Times,serif" font-size="13.00">Generated by RailRoady 1.5.3</text>
<text text-anchor="start" x="8" y="-255.1" font-family="Times,serif" font-size="13.00">http://railroady.prestonlee.com</text>
</g>
<!-- Complaint -->
<g id="node2" class="node"><title>Complaint</title>
<path fill="none" stroke="black" d="M392,-0.5C392,-0.5 612,-0.5 612,-0.5 618,-0.5 624,-6.5 624,-12.5 624,-12.5 624,-124.5 624,-124.5 624,-130.5 618,-136.5 612,-136.5 612,-136.5 392,-136.5 392,-136.5 386,-136.5 380,-130.5 380,-124.5 380,-124.5 380,-12.5 380,-12.5 380,-6.5 386,-0.5 392,-0.5"/>
<text text-anchor="middle" x="502" y="-121.3" font-family="Times,serif" font-size="14.00">Complaint</text>
<polyline fill="none" stroke="black" points="380,-113.5 624,-113.5 "/>
<text text-anchor="start" x="388" y="-98.3" font-family="Times,serif" font-size="14.00">id :integer</text>
<text text-anchor="start" x="388" y="-83.3" font-family="Times,serif" font-size="14.00">name :character varying</text>
<text text-anchor="start" x="388" y="-68.3" font-family="Times,serif" font-size="14.00">description :text</text>
<text text-anchor="start" x="388" y="-53.3" font-family="Times,serif" font-size="14.00">user_id :integer</text>
<text text-anchor="start" x="388" y="-38.3" font-family="Times,serif" font-size="14.00">company_id :integer</text>
<text text-anchor="start" x="388" y="-23.3" font-family="Times,serif" font-size="14.00">created_at :timestamp without time zone</text>
<text text-anchor="start" x="388" y="-8.3" font-family="Times,serif" font-size="14.00">updated_at :timestamp without time zone</text>
</g>
<!-- Company -->
<g id="node3" class="node"><title>Company</title>
<path fill="none" stroke="black" d="M244,-241C244,-241 464,-241 464,-241 470,-241 476,-247 476,-253 476,-253 476,-320 476,-320 476,-326 470,-332 464,-332 464,-332 244,-332 244,-332 238,-332 232,-326 232,-320 232,-320 232,-253 232,-253 232,-247 238,-241 244,-241"/>
<text text-anchor="middle" x="354" y="-316.8" font-family="Times,serif" font-size="14.00">Company</text>
<polyline fill="none" stroke="black" points="232,-309 476,-309 "/>
<text text-anchor="start" x="240" y="-293.8" font-family="Times,serif" font-size="14.00">id :integer</text>
<text text-anchor="start" x="240" y="-278.8" font-family="Times,serif" font-size="14.00">name :character varying</text>
<text text-anchor="start" x="240" y="-263.8" font-family="Times,serif" font-size="14.00">created_at :timestamp without time zone</text>
<text text-anchor="start" x="240" y="-248.8" font-family="Times,serif" font-size="14.00">updated_at :timestamp without time zone</text>
</g>
<!-- Company&#45;&gt;Complaint -->
<g id="edge1" class="edge"><title>Company&#45;&gt;Complaint</title>
<path fill="none" stroke="#806ae4" d="M389.356,-233.899C407.503,-207.414 429.96,-174.639 450.036,-145.339"/>
<ellipse fill="none" stroke="#806ae4" cx="386.927" cy="-237.445" rx="4.00002" ry="4.00002"/>
<polygon fill="#806ae4" stroke="#806ae4" points="450.253,-145.022 459.618,-139.316 453.079,-140.897 455.906,-136.773 455.906,-136.773 455.906,-136.773 453.079,-140.897 452.193,-134.229 450.253,-145.022 450.253,-145.022"/>
</g>
<!-- ApplicationRecord -->
<g id="node4" class="node"><title>ApplicationRecord</title>
<ellipse fill="none" stroke="black" cx="903" cy="-286.5" rx="77.1866" ry="18"/>
<text text-anchor="middle" x="903" y="-282.8" font-family="Times,serif" font-size="14.00">ApplicationRecord</text>
</g>
<!-- User -->
<g id="node5" class="node"><title>User</title>
<path fill="none" stroke="black" d="M506.5,-173.5C506.5,-173.5 795.5,-173.5 795.5,-173.5 801.5,-173.5 807.5,-179.5 807.5,-185.5 807.5,-185.5 807.5,-387.5 807.5,-387.5 807.5,-393.5 801.5,-399.5 795.5,-399.5 795.5,-399.5 506.5,-399.5 506.5,-399.5 500.5,-399.5 494.5,-393.5 494.5,-387.5 494.5,-387.5 494.5,-185.5 494.5,-185.5 494.5,-179.5 500.5,-173.5 506.5,-173.5"/>
<text text-anchor="middle" x="651" y="-384.3" font-family="Times,serif" font-size="14.00">User</text>
<polyline fill="none" stroke="black" points="494.5,-376.5 807.5,-376.5 "/>
<text text-anchor="start" x="502.5" y="-361.3" font-family="Times,serif" font-size="14.00">id :integer</text>
<text text-anchor="start" x="502.5" y="-346.3" font-family="Times,serif" font-size="14.00">email :character varying</text>
<text text-anchor="start" x="502.5" y="-331.3" font-family="Times,serif" font-size="14.00">encrypted_password :character varying</text>
<text text-anchor="start" x="502.5" y="-316.3" font-family="Times,serif" font-size="14.00">reset_password_token :character varying</text>
<text text-anchor="start" x="502.5" y="-301.3" font-family="Times,serif" font-size="14.00">reset_password_sent_at :timestamp without time zone</text>
<text text-anchor="start" x="502.5" y="-286.3" font-family="Times,serif" font-size="14.00">remember_created_at :timestamp without time zone</text>
<text text-anchor="start" x="502.5" y="-271.3" font-family="Times,serif" font-size="14.00">sign_in_count :integer</text>
<text text-anchor="start" x="502.5" y="-256.3" font-family="Times,serif" font-size="14.00">current_sign_in_at :timestamp without time zone</text>
<text text-anchor="start" x="502.5" y="-241.3" font-family="Times,serif" font-size="14.00">last_sign_in_at :timestamp without time zone</text>
<text text-anchor="start" x="502.5" y="-226.3" font-family="Times,serif" font-size="14.00">current_sign_in_ip :inet</text>
<text text-anchor="start" x="502.5" y="-211.3" font-family="Times,serif" font-size="14.00">last_sign_in_ip :inet</text>
<text text-anchor="start" x="502.5" y="-196.3" font-family="Times,serif" font-size="14.00">created_at :timestamp without time zone</text>
<text text-anchor="start" x="502.5" y="-181.3" font-family="Times,serif" font-size="14.00">updated_at :timestamp without time zone</text>
</g>
<!-- User&#45;&gt;Complaint -->
<g id="edge2" class="edge"><title>User&#45;&gt;Complaint</title>
<path fill="none" stroke="#9476bc" d="M569.011,-166.643C564.044,-159.442 559.121,-152.307 554.334,-145.366"/>
<ellipse fill="none" stroke="#9476bc" cx="571.392" cy="-170.095" rx="4.00002" ry="4.00002"/>
<polygon fill="#9476bc" stroke="#9476bc" points="554.026,-144.92 552.052,-134.133 551.187,-140.804 548.348,-136.689 548.348,-136.689 548.348,-136.689 551.187,-140.804 544.643,-139.244 554.026,-144.92 554.026,-144.92"/>
</g>
</g>
</svg>
